# xmcd CD database file
#
# Track frame offsets:
#	150
#	12946
#	31287
#	42231
#	59234
#	71196
#
# Disc length: 1254 seconds
#
# Revision: 0
# Processed by: cddbd v1.5.1PL2 Copyright (c) Steve Scherf et al.
# Submitted via: NeoAudio 9.9.9
#
DISCID=5404e406
DTITLE=cold war babies - in miracle world
DYEAR=2006
DGENRE=Country
TTITLE0=those who survived
TTITLE1=sing to your mothers
TTITLE2=flowers
TTITLE3=allnightlong
TTITLE4=again
TTITLE5=thats it (well there we go)
EXTD=YEAR: 2006
EXTT0=
EXTT1=
EXTT2=
EXTT3=
EXTT4=
EXTT5=
PLAYORDER=
